<?xml version="1.0" encoding="UTF-8"?>
<svg id="Layer_1" xmlns="http://www.w3.org/2000/svg" version="1.1" viewBox="0 0 1080 695">
  <!-- Generator: Adobe Illustrator 29.3.1, SVG Export Plug-In . SVG Version: 2.1.0 Build 151)  -->
  <defs>
    <style>
      .st0 {
        fill: #231f20;
      }

      .st1 {
        fill: #ff00f9;
      }

      .st2 {
        fill: #fff;
      }
    </style>
  </defs>
  <g>
    <path class="st0" d="M510.6,84.9h-62.3l-111.6,148.8V84.9h-52.1l-115,246.5-53.2,49.6,126.9-32.2,39.8-112.2,13.1,112.2,97.2-108.6-38.5,108.6h76.6l22.5-63.4h-14.3l71.1-200.4Z"/>
    <path class="st0" d="M669.5,84.9h-143.1l-34.8,98h20.2l-5.9,16.7-52.9,149.1h139l22.5-63.6h-16.1l71-200.2h0ZM559.8,284.1h-25.7l50.9-143.5h25.7l-50.9,143.5Z"/>
    <path class="st0" d="M735.7,287.8l-23.9.3-16.6-68.1,39.7-73h55.3l42.2-62.2h-130.4c0,.1-16.4.1-16.4.1l-28.9,81.4-37.5,105.8h16.4l-22.1,62.2h172.1l19.4-54.6h-66.4l-2.8,8Z"/>
    <path class="st0" d="M210.6,440.8l27.6-71.8-125.1,33-57.9,156.9h143.3l41.9-118h-29.7ZM189.9,506.6h-58.6l11.1-31.3h-28.8l40.9-34.1,7.2-20.3,27.8-6.7-5.6,15.9-47.7,37.2h68l-14.2,39.4Z"/>
    <path class="st0" d="M527.8,403.4l12.8-36h-71.8l-67.9,191.4h74.1l18.5-52.2h-21l36.6-103.2h18.6Z"/>
    <path class="st0" d="M361.4,367.4l-44.7,125.9h21.5l-23,65h69.4l67.7-190.9h-90.9Z"/>
    <path class="st0" d="M284.8,506.4l49.3-139h-60.3l-12.8,36h10.3l-55.1,155.4h82.2l18.6-52.4h-32.2Z"/>
    <path class="st2" d="M395,403.4l-25.2,71.1h5.2l-11.2,31.7h13l36.4-102.7h-18.2Z"/>
    <path class="st0" d="M661.4,353.1h-54l-5.1,14.3h-42.4l-67.9,191.4h66.8l6.7-20,5.6,20h37.9l-29.1-105,81.4-100.6Z"/>
    <path class="st0" d="M799.8,353.1l-23.5,66.2h-12l-49.5,139.5h88.6l73-205.7h-76.6ZM795.8,505.8h-23.2l20.8-58.7h7.7l15.5-43.7h15.5l-36.3,102.4Z"/>
    <path class="st0" d="M588.2,603.4c-1.8,4.5-6.8,8-11.3,8s-6.8-3.6-5.1-8c1.7-4.5,6.8-8.2,11.4-8.2s6.8,3.7,5,8.2h0Z"/>
    <path class="st0" d="M635.9,603.4c-1.8,4.5-6.8,8-11.3,8s-6.8-3.6-5.1-8c1.7-4.5,6.8-8.2,11.4-8.2s6.8,3.7,5,8.2h0Z"/>
    <path class="st0" d="M683,603.4c-1.8,4.5-6.8,8-11.3,8s-6.8-3.6-5.1-8c1.7-4.5,6.8-8.2,11.4-8.2s6.8,3.7,5,8.2h0Z"/>
    <path class="st0" d="M937.5,84.9h-64.8l-129.2,182h64.8l7.4-10.4h32.3l-8.2,23.3h-19.8l-19.4,54.6h53.6c0-.1,36-.1,36-.1l88.4-249.4h-41ZM870.3,193.3l-10.2,28.9h-20.1l40.2-56.6-9.8,27.7Z"/>
    <path class="st0" d="M785.3,353.1h-93.2l-40.3,50.3h35.3l-55.1,155.4h66.2l55.1-155.4h14.2l17.8-50.3Z"/>
    <path class="st0" d="M952.5,353.1l-67.5,116.9,41.5-116.9h-33.1l-73,205.7h13.3l-10.5,18.1h-137c-.6,0-1.2,0-1.8,0-10.4,0-21.4,6-28.8,14.7-1.3-8.7-8.2-14.7-18.5-14.7s-21.4,6-28.8,14.7c-1.3-8.7-8.2-14.7-18.5-14.7s-30.6,11.8-35.7,26.4,2.6,26.4,17.2,26.4,21.4-6,28.8-14.7c1.3,8.7,8.2,14.7,18.5,14.7s21.4-6,28.8-14.7c1.2,8.4,7.7,14.2,17.4,14.7h0s200.2,0,200.2,0l159.9-276.6h-72.3ZM595.3,603.5c-3.3,8.3-12.8,15-21.2,15s-12.7-6.7-9.5-15c3.2-8.4,12.7-15.3,21.3-15.3s12.8,6.9,9.4,15.3M643,603.5c-3.3,8.3-12.8,15-21.2,15s-12.7-6.7-9.5-15c3.2-8.4,12.7-15.3,21.3-15.3s12.8,6.9,9.4,15.3M690.1,603.5c-3.3,8.3-12.8,15-21.2,15s-12.7-6.7-9.5-15c3.2-8.4,12.7-15.3,21.3-15.3s12.8,6.9,9.4,15.3"/>
  </g>
  <g>
    <path class="st1" d="M462.1,72.5l2.1,6.7h-3.2l-1.8-6.3h-2.2l-1.3,6.3h-2.9l3.1-15.7h5.4c3.1,0,4.2,2,4.2,4.2s-1.2,4-3.6,4.8ZM461,66h-2.6l-.9,4.3h2.6c2,0,2.7-1.5,2.7-2.6s-.6-1.8-1.8-1.8Z"/>
    <path class="st1" d="M479.2,79.1h-2.4l-.8-9.6-4.7,9.6h-2.4l-.9-15.7h3l.3,10,4.7-10h2.2l.8,10,4.2-10h3l-6.9,15.7Z"/>
    <path class="st1" d="M492.8,79.1l-.3-2.9h-5.2l-1.5,2.9h-3.1l8.4-15.7h2.3l2.3,15.7h-2.9ZM491.6,67.9l-3.1,6h3.9l-.7-6Z"/>
    <path class="st1" d="M509.4,73.1h-3l-1.2,6.1h-2.9l3.1-15.7h5.5c2.6,0,4.2,1.7,4.2,4.1s-2,5.5-5.7,5.5ZM510.5,66h-2.7l-.9,4.4h2.6c1.9,0,2.7-1.5,2.7-2.6s-.5-1.8-1.7-1.8Z"/>
    <path class="st1" d="M527.2,71.3c-.6,3-1,4.8-2.4,6.2-1.2,1.2-2.8,1.8-4.3,1.8-2.9,0-4.7-2-4.7-4.4s.2-1.8.5-3.5c.6-3,1-4.8,2.4-6.2,1.2-1.2,2.8-1.8,4.3-1.8,2.9,0,4.7,2,4.7,4.4s-.2,1.8-.5,3.5ZM522.8,65.9c-.8,0-1.6.4-2.1.9-.6.6-.9,1.6-1.5,4.5-.3,1.3-.5,2.5-.5,3.3,0,1.4.9,2.1,2,2.1s1.6-.4,2.1-.9c.6-.6.9-1.6,1.5-4.5.3-1.3.4-2.5.4-3.3,0-1.4-.9-2.1-2-2.1Z"/>
    <path class="st1" d="M535.7,73.1h-3l-1.2,6.1h-2.9l3.1-15.7h5.5c2.6,0,4.2,1.7,4.2,4.1s-2,5.5-5.7,5.5ZM536.8,66h-2.7l-.9,4.4h2.6c1.9,0,2.7-1.5,2.7-2.6s-.5-1.8-1.7-1.8Z"/>
    <path class="st1" d="M558.5,66h-3.8l-2.6,13.1h-2.9l2.6-13.1h-3.9l.5-2.6h10.6l-.5,2.6Z"/>
    <path class="st1" d="M569.9,71.3c-.6,3-1,4.8-2.4,6.2-1.2,1.2-2.8,1.8-4.3,1.8-2.9,0-4.7-2-4.7-4.4s.2-1.8.5-3.5c.6-3,1-4.8,2.4-6.2,1.2-1.2,2.8-1.8,4.3-1.8,2.9,0,4.7,2,4.7,4.4s-.2,1.8-.5,3.5ZM565.5,65.9c-.8,0-1.6.4-2.1.9-.6.6-.9,1.6-1.5,4.5-.3,1.3-.5,2.5-.5,3.3,0,1.4.9,2.1,2,2.1s1.6-.4,2.1-.9c.6-.6.9-1.6,1.5-4.5.3-1.3.4-2.5.4-3.3,0-1.4-.9-2.1-2-2.1Z"/>
    <path class="st1" d="M577.8,72.8l-1.3,6.3h-2.9l1.3-6.4-2.8-9.2h3l1.7,6.5,4-6.5h3.2l-6.2,9.4Z"/>
    <path class="st1" d="M588.2,80.8h-2.6l9.6-18.9h2.6l-9.6,18.9Z"/>
    <path class="st0" d="M613,71.2c-.7,3.8-1.2,5.1-2.5,6.4-1,1-2.5,1.5-4.3,1.5h-5.5l3.1-15.7h5.1c2.6,0,4.6,1.3,4.6,4.4s-.1,1.4-.5,3.4ZM608.5,66h-2.2l-2.1,10.6h2.2c.9,0,1.7-.3,2.3-.9.6-.6,1-1.5,1.5-4.5.3-1.8.5-2.6.5-3.1,0-1.4-.8-2.1-2.2-2.1Z"/>
    <path class="st0" d="M617.3,79.1h-2.9l3.1-15.7h2.9l-3.1,15.7Z"/>
    <path class="st0" d="M630.4,68.2c0-1.4-.8-2.4-2-2.4s-1.6.4-2.1.9c-.8.8-1.1,1.8-1.6,4.5-.3,1.4-.4,2.5-.4,3.3,0,1.6,1.1,2.1,2.1,2.1s2.8-1,3.2-3.1v-.7c.1,0-2.6,0-2.6,0l.5-2.4h5.6l-.4,2.2c-.4,2.2-1,3.6-2.2,4.8-1.1,1.1-2.7,1.8-4.3,1.8-3.1,0-4.8-2.1-4.8-4.4s.2-2.1.5-3.5c.7-3.8,1.1-4.9,2.4-6.2,1.2-1.2,2.7-1.8,4.4-1.8,3.3,0,4.8,2.4,4.8,4.9h-2.9Z"/>
    <path class="st0" d="M637,79.1h-2.9l3.1-15.7h2.9l-3.1,15.7Z"/>
    <path class="st0" d="M652.5,66h-3.8l-2.6,13.1h-2.9l2.6-13.1h-3.9l.5-2.6h10.6l-.5,2.6Z"/>
    <path class="st0" d="M659.6,79.1l-.3-2.9h-5.2l-1.5,2.9h-3.1l8.4-15.7h2.3l2.3,15.7h-2.9ZM658.3,67.9l-3.1,6h3.9l-.7-6Z"/>
    <path class="st0" d="M673.9,79.1h-9.6l3.1-15.7h2.9l-2.6,13.1h6.8l-.5,2.6Z"/>
    <path class="st0" d="M691.3,71.2c.9.6,1.5,1.3,1.5,2.8,0,3.1-2.3,5.2-5.2,5.2h-6.5l3.1-15.7h5.6c2.9,0,4,1.7,4,3.6s-.6,3.1-2.5,4.1ZM688.2,72.5h-3l-.8,4.1h3c1.5,0,2.4-1.1,2.4-2.5s-.5-1.6-1.6-1.6ZM689.3,66h-2.7l-.8,3.9h2.8c1.7,0,2.4-1.3,2.4-2.3s-.3-1.5-1.6-1.5Z"/>
    <path class="st0" d="M704.3,79.1h-9.6l3.1-15.7h2.9l-2.6,13.1h6.8l-.5,2.6Z"/>
    <path class="st0" d="M709.5,79.1h-2.9l3.1-15.7h2.9l-3.1,15.7Z"/>
    <path class="st0" d="M724.3,79.1h-2.4l-4-9.8-2,9.8h-2.9l3.1-15.7h2.4l4,9.8,1.9-9.8h2.9l-3.1,15.7Z"/>
    <path class="st0" d="M739.9,71.2c-.7,3.8-1.2,5.1-2.5,6.4-1,1-2.5,1.5-4.3,1.5h-5.5l3.1-15.7h5.1c2.6,0,4.6,1.3,4.6,4.4s-.1,1.4-.5,3.4ZM735.4,66h-2.2l-2.1,10.6h2.2c.9,0,1.7-.3,2.3-.9.6-.6,1-1.5,1.5-4.5.3-1.8.5-2.6.5-3.1,0-1.4-.8-2.1-2.2-2.1Z"/>
    <path class="st0" d="M751.5,71.2c.9.6,1.5,1.3,1.5,2.8,0,3.1-2.3,5.2-5.2,5.2h-6.5l3.1-15.7h5.6c2.9,0,4,1.7,4,3.6s-.6,3.1-2.5,4.1ZM748.5,72.5h-3l-.8,4.1h3c1.5,0,2.4-1.1,2.4-2.5s-.5-1.6-1.6-1.6ZM749.5,66h-2.7l-.8,3.9h2.8c1.7,0,2.4-1.3,2.4-2.3s-.3-1.5-1.6-1.5Z"/>
    <path class="st0" d="M766.9,71.3c-.6,3-1,4.8-2.4,6.2-1.2,1.2-2.8,1.8-4.3,1.8-2.9,0-4.7-2-4.7-4.4s.2-1.8.5-3.5c.6-3,1-4.8,2.4-6.2,1.2-1.2,2.8-1.8,4.3-1.8,2.9,0,4.7,2,4.7,4.4s-.2,1.8-.5,3.5ZM762.5,65.9c-.8,0-1.6.4-2.1.9-.6.6-.9,1.6-1.5,4.5-.3,1.3-.5,2.5-.5,3.3,0,1.4.9,2.1,2,2.1s1.6-.4,2.1-.9c.6-.6.9-1.6,1.5-4.5.3-1.3.4-2.5.4-3.3,0-1.4-.9-2.1-2-2.1Z"/>
    <path class="st0" d="M775.7,71.2l3.1,7.9h-3.2l-1.9-5.6-3.9,5.6h-3.4l6.1-8.1-2.9-7.5h3.2l1.7,5.1,3.5-5.1h3.4l-5.7,7.7Z"/>
    <path class="st0" d="M794.8,74.3h-3.3l-.7,3.6h-2.5l.7-3.6h-3.3l.5-2.6h3.3l.7-3.6h2.5l-.7,3.6h3.3l-.5,2.6Z"/>
    <path class="st0" d="M808.4,73.1h-3l-1.2,6.1h-2.9l3.1-15.7h5.5c2.6,0,4.2,1.7,4.2,4.1s-2,5.5-5.7,5.5ZM809.5,66h-2.7l-.9,4.4h2.6c1.9,0,2.7-1.5,2.7-2.6s-.5-1.8-1.7-1.8Z"/>
    <path class="st0" d="M825.1,79.1h-2.9l1.3-6.6h-5l-1.3,6.6h-2.9l3.1-15.7h2.9l-1.3,6.5h5l1.3-6.5h2.9l-3.1,15.7Z"/>
    <path class="st0" d="M835.5,72.8l-1.3,6.3h-2.9l1.3-6.4-2.8-9.2h3l1.7,6.5,4-6.5h3.2l-6.2,9.4Z"/>
    <path class="st0" d="M850.4,67c-.7-.8-1.5-1.1-2.7-1.1-1.8,0-2.9,1.2-2.9,2.4s.8,1.3,1.7,1.5l1.3.3c2.6.6,3.5,1.8,3.5,4.1,0,3.5-2.9,5.1-6.2,5.1s-3.9-.6-5.2-2.2l2.1-1.8c.8,1,1.9,1.4,3.4,1.4s3.1-1,3.1-2.3-.7-1.5-1.6-1.7l-1.3-.3c-2.5-.6-3.5-2.1-3.5-3.7,0-3,2.3-5.3,6.1-5.3s3.4.6,4.4,1.9l-2,1.8Z"/>
    <path class="st0" d="M855.6,79.1h-2.9l3.1-15.7h2.9l-3.1,15.7Z"/>
    <path class="st0" d="M868.6,68.2c0-1.3-.6-2.3-2-2.3s-1.5.4-2.1.9c-.6.6-1,1.8-1.5,4.5-.3,1.3-.5,2.5-.5,3.3,0,1.3.9,2.1,2.1,2.1s2.5-1.1,2.9-2.3h3c-1,3.2-3.3,4.8-6.1,4.8s-4.8-2-4.8-4.4.1-1.7.5-3.5c.6-3,1-4.8,2.4-6.2,1.2-1.3,2.8-1.8,4.3-1.8,3.2,0,4.7,2.1,4.7,4.8h-2.9Z"/>
    <path class="st0" d="M880.4,79.1l-.3-2.9h-5.2l-1.5,2.9h-3.1l8.4-15.7h2.3l2.3,15.7h-2.9ZM879.1,67.9l-3.1,6h3.9l-.7-6Z"/>
    <path class="st0" d="M894.8,79.1h-9.6l3.1-15.7h2.9l-2.6,13.1h6.8l-.5,2.6Z"/>
    <path class="st0" d="M909,73.1h-3l-1.2,6.1h-2.9l3.1-15.7h5.5c2.6,0,4.2,1.7,4.2,4.1s-2,5.5-5.7,5.5ZM910,66h-2.7l-.9,4.4h2.6c1.9,0,2.7-1.5,2.7-2.6s-.5-1.8-1.7-1.8Z"/>
    <path class="st0" d="M926.8,71.3c-.6,3-1,4.8-2.4,6.2-1.2,1.2-2.8,1.8-4.3,1.8-2.9,0-4.7-2-4.7-4.4s.2-1.8.5-3.5c.6-3,1-4.8,2.4-6.2,1.2-1.2,2.8-1.8,4.3-1.8,2.9,0,4.7,2,4.7,4.4s-.2,1.8-.5,3.5ZM922.4,65.9c-.8,0-1.6.4-2.1.9-.6.6-.9,1.6-1.5,4.5-.3,1.3-.5,2.5-.5,3.3,0,1.4.9,2.1,2,2.1s1.6-.4,2.1-.9c.6-.6.9-1.6,1.5-4.5.3-1.3.4-2.5.4-3.3,0-1.4-.9-2.1-2-2.1Z"/>
    <path class="st0" d="M935.3,73.1h-3l-1.2,6.1h-2.9l3.1-15.7h5.5c2.6,0,4.2,1.7,4.2,4.1s-2,5.5-5.7,5.5ZM936.3,66h-2.7l-.9,4.4h2.6c1.9,0,2.7-1.5,2.7-2.6s-.5-1.8-1.7-1.8Z"/>
    <path class="st0" d="M958,66h-3.8l-2.6,13.1h-2.9l2.6-13.1h-3.9l.5-2.6h10.6l-.5,2.6Z"/>
    <path class="st0" d="M969.5,71.3c-.6,3-1,4.8-2.4,6.2-1.2,1.2-2.8,1.8-4.3,1.8-2.9,0-4.7-2-4.7-4.4s.2-1.8.5-3.5c.6-3,1-4.8,2.4-6.2,1.2-1.2,2.8-1.8,4.3-1.8,2.9,0,4.7,2,4.7,4.4s-.2,1.8-.5,3.5ZM965.1,65.9c-.8,0-1.6.4-2.1.9-.6.6-.9,1.6-1.5,4.5-.3,1.3-.5,2.5-.5,3.3,0,1.4.9,2.1,2,2.1s1.6-.4,2.1-.9c.6-.6.9-1.6,1.5-4.5.3-1.3.4-2.5.4-3.3,0-1.4-.9-2.1-2-2.1Z"/>
    <path class="st0" d="M977.4,72.8l-1.3,6.3h-2.9l1.3-6.4-2.8-9.2h3l1.7,6.5,4-6.5h3.2l-6.2,9.4Z"/>
  </g>
</svg>