<?xml version="1.0" encoding="UTF-8"?>
<svg data-bbox="55.21 104.78 969.6 544.93" viewBox="0 0 1080 731.77" xmlns="http://www.w3.org/2000/svg" data-type="color">
    <g>
        <path fill="#231f20" d="M510.59 104.9H448.3L336.71 253.69V104.9h-52.14L169.53 351.35l-53.25 49.58 126.87-32.23 39.79-112.19 13.09 112.19 97.23-108.59-38.52 108.59h76.55l22.47-63.36H439.5z" data-color="1"/>
        <path d="M669.53 104.9H526.46l-34.77 98.04h20.19l-5.92 16.68-52.88 149.08h138.96l22.55-63.57h-16.08l71.02-200.22ZM559.79 304.12h-25.65l50.91-143.53h25.65z" fill="#231f20" data-color="1"/>
        <path fill="#231f20" d="m735.74 307.78-23.86.28-16.57-68.09 39.74-73.04h55.26l42.19-62.15H702.09l-.04.12h-16.41l-28.88 81.44-37.53 105.83h16.4l-22.06 62.2h172.06L805 299.76h-66.42z" data-color="1"/>
        <path d="m210.59 460.81 27.59-71.84-125.1 33.01-57.87 156.85h143.26l41.86-118.02zm-20.64 65.76h-58.6l11.1-31.29H113.7l40.86-34.15 7.19-20.27 27.76-6.66-5.63 15.86-47.72 37.16h67.99z" fill="#231f20" data-color="1"/>
        <path fill="#231f20" d="m527.76 423.37 12.76-35.97h-71.79l-67.86 191.35h74.11l18.52-52.22h-20.95l36.58-103.16z" data-color="1"/>
        <path fill="#231f20" d="m361.43 387.4-44.67 125.94h21.48l-23.04 64.98h69.37l67.71-190.92z" data-color="1"/>
        <path fill="#231f20" d="m284.8 526.37 49.29-138.97h-60.31l-12.76 35.97h10.31l-55.1 155.38h82.16l18.57-52.38z" data-color="1"/>
        <path fill="#ffffff" d="m395.02 423.37-25.2 71.06h5.16l-11.24 31.67h13.05l36.44-102.73z" data-color="2"/>
        <path fill="#231f20" d="M661.39 373.08h-53.95l-5.09 14.32H559.9l-67.86 191.35h66.85l6.71-20.05 5.6 20.05h37.93l-29.14-105.03z" data-color="1"/>
        <path d="m799.77 373.08-23.48 66.2h-12.02L714.8 578.75h88.62l72.95-205.67zm-3.96 152.7h-23.23l20.81-58.67h7.74l15.51-43.73h15.49z" fill="#231f20" data-color="1"/>
        <path d="M588.17 623.36c-1.78 4.45-6.84 8.02-11.33 8.02-4.48 0-6.77-3.57-5.1-8.02 1.7-4.51 6.81-8.21 11.4-8.21s6.83 3.7 5.02 8.21Z" fill="#231f20" data-color="1"/>
        <path d="M635.94 623.36c-1.78 4.45-6.84 8.02-11.33 8.02-4.48 0-6.77-3.57-5.1-8.02 1.7-4.51 6.81-8.21 11.4-8.21s6.83 3.7 5.02 8.21Z" fill="#231f20" data-color="1"/>
        <path d="M683.04 623.36c-1.78 4.45-6.84 8.02-11.33 8.02-4.48 0-6.77-3.57-5.1-8.02 1.7-4.51 6.81-8.21 11.4-8.21s6.83 3.7 5.02 8.21Z" fill="#231f20" data-color="1"/>
        <path d="M937.48 104.9h-64.79L743.48 286.88h64.79l7.37-10.39h32.28l-8.25 23.26h-19.79l-19.37 54.61 53.58-.11h35.95l88.44-249.36h-41Zm-67.16 108.44-10.25 28.91h-20.11l40.18-56.59z" fill="#231f20" data-color="1"/>
        <path fill="#231f20" d="M785.29 373.08h-93.24l-40.34 50.29h35.34l-55.11 155.38h66.21l55.11-155.38h14.19z" data-color="1"/>
        <path d="m952.47 373.08-67.53 116.85 41.45-116.85h-33.1l-72.95 205.67h13.27l-10.45 18.08h-137l-.03.08c-.6-.04-1.2-.08-1.82-.08-10.38 0-21.42 5.99-28.78 14.69-1.3-8.7-8.16-14.69-18.54-14.69s-21.42 5.99-28.78 14.69c-1.3-8.7-8.16-14.69-18.54-14.69-14.6 0-30.56 11.84-35.65 26.44s2.62 26.44 17.23 26.44c10.38 0 21.42-5.99 28.78-14.69 1.3 8.7 8.16 14.69 18.54 14.69s21.42-5.99 28.78-14.69c1.25 8.37 7.67 14.22 17.4 14.65l-.02.04h200.2l159.88-276.63h-72.32ZM595.28 623.45c-3.33 8.32-12.79 15-21.17 15s-12.66-6.67-9.53-15c3.17-8.43 12.73-15.35 21.31-15.35s12.76 6.92 9.39 15.35m47.76 0c-3.33 8.32-12.79 15-21.17 15s-12.66-6.67-9.53-15c3.17-8.43 12.73-15.35 21.31-15.35s12.76 6.92 9.39 15.35m47.1 0c-3.33 8.32-12.79 15-21.17 15s-12.66-6.67-9.53-15c3.17-8.43 12.73-15.35 21.31-15.35s12.76 6.92 9.39 15.35" fill="#231f20" data-color="1"/>
    </g>
</svg>
